<?xml version="1.0" encoding="utf-8"?>
<!-- Generator: Adobe Illustrator 23.0.1, SVG Export Plug-In . SVG Version: 6.00 Build 0)  -->
<svg version="1.1" id="Capa_1" xmlns="http://www.w3.org/2000/svg" xmlns:xlink="http://www.w3.org/1999/xlink" x="0px" y="0px"
	 viewBox="0 0 512 512" style="enable-background:new 0 0 512 512;" xml:space="preserve">
<style type="text/css">
	.st0{fill:#80BAFF;}
</style>
<g>
	<g>
		<path class="st0" d="M506.5,168.4c-4.6-5.4-11.3-8.5-18.4-8.5H23.9c-7.1,0-13.8,3.1-18.4,8.5c-4.3,5-6.2,11.6-5.3,18.1l27.4,285.9
			c0,0.2,0,0.4,0.1,0.7c2.4,18,17.7,31.6,35.6,31.6h385.4c18.8,0,34.5-14.4,35.7-32.3l27.4-285.9C512.7,180,510.7,173.5,506.5,168.4
			z M448.8,469C448.8,469,448.7,469,448.8,469l-385.2,0c-0.2-0.1-0.4-0.3-0.5-0.5L37,195.8H475L448.8,469z"/>
	</g>
</g>
<g>
	<g>
		<path class="st0" d="M466.8,91.2c-4.5-5.2-11.1-8.2-18.1-8.2H63.9c-7,0-13.6,3.1-18.2,8.5c-4.6,5.5-6.6,12.6-5.5,19.3L51,180.6
			l35.4-5.4l-8.7-56.3h357.2l-8.7,56.3l35.4,5.4l10.8-70C473.4,103.5,471.3,96.5,466.8,91.2z"/>
	</g>
</g>
<g>
	<g>
		<path class="st0" d="M413.7,15.5c-4.5-5.2-11.1-8.2-18.1-8.2H117c-7,0-13.6,3.1-18.2,8.5c-4.6,5.5-6.6,12.6-5.5,19.3l10.7,68.6
			l35.4-5.5L130.8,43h250.8L372.6,98l35.3,5.8l11.4-69C420.3,27.8,418.3,20.7,413.7,15.5z"/>
	</g>
</g>
<g>
	<g>
		<path class="st0" d="M331.2,272.7H180.8c-9.9,0-17.9,8-17.9,17.9s8,17.9,17.9,17.9h150.3c9.9,0,17.9-8,17.9-17.9
			C349.1,280.7,341.1,272.7,331.2,272.7z"/>
	</g>
</g>
</svg>
